<svg width="16" height="16" xmlns="http://www.w3.org/2000/svg">
 <title/>

 <g>
  <title>background</title>
  <rect fill="none" id="canvas_background" height="402" width="582" y="-1" x="-1"/>
 </g>
 <g>
  <title>Layer 1</title>
  <path fill="#ffffff" id="Oval 188" d="m7.931166,13.449329c2.761428,0 5,-2.238571 5,-5c0,-1.635818 -0.785553,-3.08815 -2,-4.000366l0,-2.326004c2.364944,1.123459 4,3.533966 4,6.32637c0,3.865997 -3.134003,6.999999 -7,6.999999c-3.865997,0 -7,-3.134002 -7,-6.999999c0,-2.792404 1.635056,-5.202912 4,-6.32637l0,2.326004c-1.214447,0.912216 -2,2.364548 -2,4.000366c0,2.761429 2.238571,5 5,5zm0,-5c-0.556137,0 -1,-0.446381 -1,-0.997025l0,-6.005951c0,-0.543991 0.447708,-0.997024 1,-0.997024c0.556137,0 1,0.446381 1,0.997024l0,6.005951c0,0.543991 -0.447708,0.997025 -1,0.997025zm0,0"/>
 </g>
</svg>